<svg width="32" height="32" viewBox="0 0 32 32" fill="none" xmlns="http://www.w3.org/2000/svg">
  <!-- Background circle with primary color -->
  <rect width="32" height="32" rx="8" fill="#6366f1"/>
  
  <!-- Stethoscope icon -->
  <g transform="translate(8, 8) scale(0.5)">
    <!-- Stethoscope tube -->
    <path d="M16 6c-2.209 0-4 1.791-4 4v4h-2c-1.105 0-2 0.895-2 2v6c0 1.105 0.895 2 2 2h2v4c0 2.209 1.791 4 4 4s4-1.791 4-4v-4h2c1.105 0 2-0.895 2-2v-6c0-1.105-0.895-2-2-2h-2v-4c0-2.209-1.791-4-4-4z" fill="white"/>
    
    <!-- Stethoscope chest piece -->
    <circle cx="16" cy="20" r="2" fill="white"/>
    <circle cx="14" cy="20" r="1" fill="#6366f1"/>
    <circle cx="18" cy="20" r="1" fill="#6366f1"/>
  </g>
</svg> 