<svg width="512" height="512" viewBox="0 0 512 512" fill="none" xmlns="http://www.w3.org/2000/svg">
  <!-- Background circle with primary color -->
  <rect width="512" height="512" rx="128" fill="#6366f1"/>
  
  <!-- Stethoscope icon -->
  <g transform="translate(128, 128) scale(0.5)">
    <!-- Stethoscope tube -->
    <path d="M256 96c-35.346 0-64 28.654-64 64v64h-32c-17.673 0-32 14.327-32 32v96c0 17.673 14.327 32 32 32h32v64c0 35.346 28.654 64 64 64s64-28.654 64-64v-64h32c17.673 0 32-14.327 32-32v-96c0-17.673-14.327-32-32-32h-32v-64c0-35.346-28.654-64-64-64z" fill="white"/>
    
    <!-- Stethoscope chest piece -->
    <circle cx="256" cy="320" r="32" fill="white"/>
    <circle cx="224" cy="320" r="16" fill="#6366f1"/>
    <circle cx="288" cy="320" r="16" fill="#6366f1"/>
    
    <!-- Stethoscope earpieces -->
    <path d="M192 256c-8.837 0-16-7.163-16-16s7.163-16 16-16 16 7.163 16 16-7.163 16-16 16z" fill="white"/>
    <path d="M320 256c-8.837 0-16-7.163-16-16s7.163-16 16-16 16 7.163 16 16-7.163 16-16 16z" fill="white"/>
  </g>
</svg> 